<?xml version="1.0" encoding="UTF-8" standalone="no"?>
<svg width="569.383mm" height="90.3111mm"
 xmlns="http://www.w3.org/2000/svg" xmlns:xlink="http://www.w3.org/1999/xlink"  version="1.2" baseProfile="tiny">
<title>Qt SVG Document</title>
<desc>Generated with Qt</desc>
<defs>
</defs>
<g fill="none" stroke="black" stroke-width="1" fill-rule="evenodd" stroke-linecap="square" stroke-linejoin="bevel" >

<g fill="none" stroke="#000000" stroke-opacity="1" stroke-width="1" stroke-linecap="square" stroke-linejoin="bevel" transform="matrix(1,0,0,1,0,0)"
font-family="Ubuntu" font-size="11" font-weight="400" font-style="normal" 
>
</g>

<g fill="none" stroke="#000000" stroke-opacity="1" stroke-width="1" stroke-linecap="square" stroke-linejoin="bevel" transform="matrix(1,0,0,1,0,0)"
font-family="Ubuntu" font-size="11" font-weight="400" font-style="normal" 
>
</g>

<g fill="none" stroke="#000000" stroke-opacity="1" stroke-width="1" stroke-linecap="square" stroke-linejoin="bevel" transform="matrix(2,0,0,2,-0.0016,256)"
font-family="Ubuntu" font-size="11" font-weight="400" font-style="normal" 
>
</g>

<g fill="#ffffff" fill-opacity="1" stroke="none" transform="matrix(2,0,0,2,-0.0016,256)"
font-family="Ubuntu" font-size="11" font-weight="400" font-style="normal" 
>
<rect x="0.0008" y="-128" width="806.947" height="128"/>
</g>

<g fill="none" stroke="#000000" stroke-opacity="1" stroke-width="1" stroke-linecap="square" stroke-linejoin="bevel" transform="matrix(2,0,0,2,-0.0016,256)"
font-family="Ubuntu" font-size="11" font-weight="400" font-style="normal" 
>
</g>

<g fill="none" stroke="#000000" stroke-opacity="1" stroke-width="1" stroke-linecap="square" stroke-linejoin="bevel" transform="matrix(2,0,0,2,-0.0016,256)"
font-family="Ubuntu" font-size="11" font-weight="400" font-style="normal" 
>
</g>

<g fill="none" stroke="#000000" stroke-opacity="1" stroke-width="1" stroke-linecap="square" stroke-linejoin="bevel" transform="matrix(2,0,0,2,-0.0016,256)"
font-family="Ubuntu" font-size="11" font-weight="400" font-style="normal" 
>
</g>

<g fill="none" stroke="#000000" stroke-opacity="1" stroke-width="1" stroke-linecap="square" stroke-linejoin="bevel" transform="matrix(2,0,0,2,-0.0016,256)"
font-family="Ubuntu" font-size="11" font-weight="400" font-style="normal" 
>
</g>

<g fill="none" stroke="#000000" stroke-opacity="1" stroke-width="1" stroke-linecap="square" stroke-linejoin="round" transform="matrix(2,0,0,2,-0.0016,256)"
font-family="Ubuntu" font-size="11" font-weight="400" font-style="normal" 
>
<ellipse cx="684.76" cy="-64" rx="121.688" ry="17.5"/>
</g>

<g fill="none" stroke="#000000" stroke-opacity="1" stroke-width="1" stroke-linecap="square" stroke-linejoin="bevel" transform="matrix(2,0,0,2,-0.0016,256)"
font-family="Ubuntu" font-size="11" font-weight="400" font-style="normal" 
>
</g>

<g fill="none" stroke="#000000" stroke-opacity="1" stroke-width="1" stroke-linecap="square" stroke-linejoin="bevel" transform="matrix(2,0,0,2,1216.67,111)"
font-family="Ubuntu" font-size="11" font-weight="400" font-style="normal" 
>
</g>

<g fill="none" stroke="#000000" stroke-opacity="1" stroke-width="1" stroke-linecap="square" stroke-linejoin="bevel" transform="matrix(2,0,0,2,1216.67,111)"
font-family="sans" font-size="11" font-weight="100" font-style="normal" 
>
</g>

<g fill="#000000" fill-opacity="1" stroke="#000000" stroke-opacity="1" stroke-width="1" stroke-linecap="square" stroke-linejoin="round" transform="matrix(2,0,0,2,1216.67,111)"
font-family="sans" font-size="11" font-weight="100" font-style="normal" 
>
<path vector-effect="none" fill-rule="nonzero" d="M0.109375,14.9531 L0.625,14.9531 L4.25,4.35938 L3.73438,4.35938 L0.109375,14.9531 M6.20312,13.1406 C6.42188,13.1406 6.53125,13.1094 6.64062,13.0781 L6.54688,12.5781 C6.42188,12.5938 6.375,12.5938 6.32812,12.5938 C6.17188,12.5938 6.0625,12.4688 6.0625,12.2031 L6.0625,4.25 L5.42188,4.25 L5.42188,12.125 C5.42188,12.8125 5.6875,13.1406 6.20312,13.1406 M8.34375,13 L8.98438,13 L8.98438,7.14062 L8.34375,7.14062 L8.34375,13 M8.6875,5.76562 C8.96875,5.76562 9.21875,5.54688 9.21875,5.25 C9.21875,4.92188 8.96875,4.73438 8.6875,4.73438 C8.39062,4.73438 8.14062,4.92188 8.14062,5.25 C8.14062,5.54688 8.39062,5.76562 8.6875,5.76562 M12.6094,13.1406 C13.9062,13.1406 14.6094,12.375 14.6094,11.4688 C14.6094,10.3438 13.625,10.0156 12.7188,9.67188 C12.0469,9.42188 11.3594,9.1875 11.3594,8.53125 C11.3594,8 11.75,7.51562 12.625,7.51562 C13.2031,7.51562 13.625,7.75 14.0156,8.04688 L14.3594,7.60938 C13.9062,7.25 13.2812,6.98438 12.6406,6.98438 C11.4219,6.98438 10.7188,7.70312 10.7188,8.5625 C10.7188,9.57812 11.6875,9.9375 12.5625,10.25 C13.2344,10.4844 13.9844,10.8125 13.9844,11.5 C13.9844,12.1094 13.5312,12.6094 12.6406,12.6094 C11.8281,12.6094 11.2969,12.3125 10.7812,11.875 L10.4531,12.3438 C10.9688,12.7812 11.75,13.1406 12.6094,13.1406 M17.5469,13.1406 C17.8125,13.1406 18.1875,13.0469 18.5312,12.9219 L18.375,12.4219 C18.1562,12.5156 17.875,12.5938 17.6562,12.5938 C16.875,12.5938 16.6719,12.1094 16.6719,11.375 L16.6719,7.67188 L18.3594,7.67188 L18.3594,7.14062 L16.6719,7.14062 L16.6719,5.4375 L16.1406,5.4375 L16.0625,7.14062 L15.125,7.1875 L15.125,7.67188 L16.0469,7.67188 L16.0469,11.3281 C16.0469,12.4219 16.3906,13.1406 17.5469,13.1406 M21.8594,13.1406 C22.7031,13.1406 23.25,12.875 23.7344,12.5781 L23.4844,12.0938 C23.0469,12.4062 22.5469,12.6094 21.9219,12.6094 C20.6562,12.6094 19.8125,11.6094 19.7812,10.1719 L23.9375,10.1719 C23.9688,10.0312 23.9688,9.875 23.9688,9.70312 C23.9688,8 23.125,6.98438 21.7031,6.98438 C20.375,6.98438 19.125,8.17188 19.125,10.0781 C19.125,12 20.3594,13.1406 21.8594,13.1406 M19.7812,9.67188 C19.9062,8.32812 20.7656,7.53125 21.7188,7.53125 C22.7344,7.53125 23.3906,8.25 23.3906,9.67188 L19.7812,9.67188 M25.5156,13 L26.1562,13 L26.1562,8.60938 C26.8438,7.90625 27.3281,7.54688 28.0156,7.54688 C28.9062,7.54688 29.2969,8.10938 29.2969,9.34375 L29.2969,13 L29.9375,13 L29.9375,9.25 C29.9375,7.73438 29.375,6.98438 28.1562,6.98438 C27.3438,6.98438 26.75,7.4375 26.1562,8.03125 L26.125,8.03125 L26.0469,7.14062 L25.5156,7.14062 L25.5156,13 M34.2812,13.1406 C35.125,13.1406 35.6719,12.875 36.1562,12.5781 L35.9062,12.0938 C35.4688,12.4062 34.9688,12.6094 34.3438,12.6094 C33.0781,12.6094 32.2344,11.6094 32.2031,10.1719 L36.3594,10.1719 C36.3906,10.0312 36.3906,9.875 36.3906,9.70312 C36.3906,8 35.5469,6.98438 34.125,6.98438 C32.7969,6.98438 31.5469,8.17188 31.5469,10.0781 C31.5469,12 32.7812,13.1406 34.2812,13.1406 M32.2031,9.67188 C32.3281,8.32812 33.1875,7.53125 34.1406,7.53125 C35.1562,7.53125 35.8125,8.25 35.8125,9.67188 L32.2031,9.67188 M37.9375,13 L38.5781,13 L38.5781,9.0625 C39.0156,7.96875 39.6406,7.59375 40.1562,7.59375 C40.3906,7.59375 40.5,7.60938 40.6875,7.6875 L40.8281,7.10938 C40.6406,7.01562 40.4688,6.98438 40.2344,6.98438 C39.5469,6.98438 38.9688,7.48438 38.5781,8.21875 L38.5469,8.21875 L38.4688,7.14062 L37.9375,7.14062 L37.9375,13 M40.9219,14.4531 L46.7344,14.4531 L46.7344,13.9375 L40.9219,13.9375 L40.9219,14.4531 M47.8281,10.1719 L50,7 C50.2344,6.625 50.4531,6.25 50.6406,5.875 L50.6875,5.875 C50.6562,6.25 50.625,6.84375 50.625,7.21875 L50.625,10.1719 L47.8281,10.1719 M52.3906,10.1719 L51.25,10.1719 L51.25,4.98438 L50.625,4.98438 L47.0781,10.2969 L47.0781,10.7188 L50.625,10.7188 L50.625,13 L51.25,13 L51.25,10.7188 L52.3906,10.7188 L52.3906,10.1719 M53.7031,10.1719 L55.875,7 C56.1094,6.625 56.3281,6.25 56.5156,5.875 L56.5625,5.875 C56.5312,6.25 56.5,6.84375 56.5,7.21875 L56.5,10.1719 L53.7031,10.1719 M58.2656,10.1719 L57.125,10.1719 L57.125,4.98438 L56.5,4.98438 L52.9531,10.2969 L52.9531,10.7188 L56.5,10.7188 L56.5,13 L57.125,13 L57.125,10.7188 L58.2656,10.7188 L58.2656,10.1719 M61.6094,13.1406 C63.0312,13.1406 64,12.2344 64,11.1094 C64,10 63.3281,9.42188 62.6406,9.01562 L62.6406,8.96875 C63.0938,8.59375 63.7344,7.84375 63.7344,6.96875 C63.7344,5.76562 62.9531,4.875 61.625,4.875 C60.4531,4.875 59.5469,5.6875 59.5469,6.84375 C59.5469,7.70312 60.0781,8.29688 60.6562,8.67188 L60.6562,8.71875 C59.9062,9.125 59.125,9.90625 59.125,11.0156 C59.125,12.2344 60.1719,13.1406 61.6094,13.1406 M62.1719,8.78125 C61.1719,8.39062 60.1719,7.9375 60.1719,6.84375 C60.1719,6 60.7656,5.39062 61.6094,5.39062 C62.5781,5.39062 63.1406,6.125 63.1406,7 C63.1406,7.65625 62.8125,8.26562 62.1719,8.78125 M61.6094,12.625 C60.5156,12.625 59.7188,11.9062 59.7188,10.9688 C59.7188,10.1094 60.2812,9.40625 61.0312,8.96875 C62.25,9.4375 63.3594,9.875 63.3594,11.0938 C63.3594,11.9531 62.6719,12.625 61.6094,12.625 M65.4531,10.1719 L67.625,7 C67.8594,6.625 68.0781,6.25 68.2656,5.875 L68.3125,5.875 C68.2812,6.25 68.25,6.84375 68.25,7.21875 L68.25,10.1719 L65.4531,10.1719 M70.0156,10.1719 L68.875,10.1719 L68.875,4.98438 L68.25,4.98438 L64.7031,10.2969 L64.7031,10.7188 L68.25,10.7188 L68.25,13 L68.875,13 L68.875,10.7188 L70.0156,10.7188 L70.0156,10.1719 M70.5156,14.4531 L76.3281,14.4531 L76.3281,13.9375 L70.5156,13.9375 L70.5156,14.4531 M77.4844,13 L81.625,13 L81.625,12.4375 L79.9375,12.4375 L79.9375,4.98438 L79.4219,4.98438 C79.0469,5.20312 78.5469,5.375 77.9062,5.48438 L77.9062,5.92188 L79.2969,5.92188 L79.2969,12.4375 L77.4844,12.4375 L77.4844,13 M85.125,13.1406 C86.4062,13.1406 87.6406,12.1562 87.6406,10.4219 C87.6406,8.64062 86.5781,7.84375 85.2656,7.84375 C84.7031,7.84375 84.2969,8 83.9219,8.23438 L84.1406,5.54688 L87.2344,5.54688 L87.2344,4.98438 L83.5781,4.98438 L83.2969,8.64062 L83.7188,8.89062 C84.1719,8.59375 84.5625,8.39062 85.1406,8.39062 C86.2656,8.39062 86.9688,9.17188 86.9688,10.4531 C86.9688,11.75 86.125,12.5938 85.1094,12.5938 C84.0625,12.5938 83.4688,12.125 83,11.6406 L82.6562,12.0938 C83.1719,12.6094 83.8906,13.1406 85.125,13.1406 M89.1719,10.1719 L91.3438,7 C91.5781,6.625 91.7969,6.25 91.9844,5.875 L92.0312,5.875 C92,6.25 91.9688,6.84375 91.9688,7.21875 L91.9688,10.1719 L89.1719,10.1719 M93.7344,10.1719 L92.5938,10.1719 L92.5938,4.98438 L91.9688,4.98438 L88.4219,10.2969 L88.4219,10.7188 L91.9688,10.7188 L91.9688,13 L92.5938,13 L92.5938,10.7188 L93.7344,10.7188 L93.7344,10.1719 M97.0469,13.1406 C98.5,13.1406 99.3906,11.7812 99.3906,8.96875 C99.3906,6.17188 98.5,4.84375 97.0469,4.84375 C95.5781,4.84375 94.6719,6.17188 94.6719,8.96875 C94.6719,11.7812 95.5781,13.1406 97.0469,13.1406 M97.0469,12.6094 C96,12.6094 95.3125,11.3906 95.3125,8.96875 C95.3125,6.57812 96,5.375 97.0469,5.375 C98.0781,5.375 98.7656,6.57812 98.7656,8.96875 C98.7656,11.3906 98.0781,12.6094 97.0469,12.6094 M102.219,13 L102.922,13 C103.031,9.85938 103.438,7.85938 105.344,5.35938 L105.344,4.98438 L100.5,4.98438 L100.5,5.54688 L104.562,5.54688 C102.969,7.76562 102.359,9.79688 102.219,13 M106.344,13 L111.172,13 L111.172,12.4219 L108.672,12.4219 C108.25,12.4219 107.797,12.4531 107.344,12.5 C109.484,10.5 110.781,8.8125 110.781,7.14062 C110.781,5.75 109.953,4.84375 108.562,4.84375 C107.594,4.84375 106.906,5.32812 106.312,5.98438 L106.719,6.375 C107.172,5.8125 107.797,5.375 108.5,5.375 C109.625,5.375 110.141,6.15625 110.141,7.15625 C110.141,8.60938 109.062,10.2656 106.344,12.6094 L106.344,13 M112.672,10.1719 L114.844,7 C115.078,6.625 115.297,6.25 115.484,5.875 L115.531,5.875 C115.5,6.25 115.469,6.84375 115.469,7.21875 L115.469,10.1719 L112.672,10.1719 M117.234,10.1719 L116.094,10.1719 L116.094,4.98438 L115.469,4.98438 L111.922,10.2969 L111.922,10.7188 L115.469,10.7188 L115.469,13 L116.094,13 L116.094,10.7188 L117.234,10.7188 L117.234,10.1719 M120.578,13.1406 C122,13.1406 122.969,12.2344 122.969,11.1094 C122.969,10 122.297,9.42188 121.609,9.01562 L121.609,8.96875 C122.062,8.59375 122.703,7.84375 122.703,6.96875 C122.703,5.76562 121.922,4.875 120.594,4.875 C119.422,4.875 118.516,5.6875 118.516,6.84375 C118.516,7.70312 119.047,8.29688 119.625,8.67188 L119.625,8.71875 C118.875,9.125 118.094,9.90625 118.094,11.0156 C118.094,12.2344 119.141,13.1406 120.578,13.1406 M121.141,8.78125 C120.141,8.39062 119.141,7.9375 119.141,6.84375 C119.141,6 119.734,5.39062 120.578,5.39062 C121.547,5.39062 122.109,6.125 122.109,7 C122.109,7.65625 121.781,8.26562 121.141,8.78125 M120.578,12.625 C119.484,12.625 118.688,11.9062 118.688,10.9688 C118.688,10.1094 119.25,9.40625 120,8.96875 C121.219,9.4375 122.328,9.875 122.328,11.0938 C122.328,11.9531 121.641,12.625 120.578,12.625 M126.422,13.1406 C127.875,13.1406 128.766,11.7812 128.766,8.96875 C128.766,6.17188 127.875,4.84375 126.422,4.84375 C124.953,4.84375 124.047,6.17188 124.047,8.96875 C124.047,11.7812 124.953,13.1406 126.422,13.1406 M126.422,12.6094 C125.375,12.6094 124.688,11.3906 124.688,8.96875 C124.688,6.57812 125.375,5.375 126.422,5.375 C127.453,5.375 128.141,6.57812 128.141,8.96875 C128.141,11.3906 127.453,12.6094 126.422,12.6094 M132.094,9.40625 C130.984,9.40625 130.484,8.5625 130.484,7.40625 C130.484,6.23438 131.141,5.35938 132,5.35938 C133.266,5.35938 133.891,6.46875 133.969,8.21875 C133.359,9.0625 132.688,9.40625 132.094,9.40625 M130.016,12.375 C130.438,12.8281 131,13.1406 131.781,13.1406 C133.25,13.1406 134.609,11.9375 134.609,8.5625 C134.609,6.14062 133.562,4.84375 132.016,4.84375 C130.844,4.84375 129.844,5.89062 129.844,7.40625 C129.844,9.03125 130.672,9.92188 132.016,9.92188 C132.766,9.92188 133.453,9.48438 133.969,8.85938 C133.906,11.625 132.906,12.5938 131.797,12.5938 C131.25,12.5938 130.766,12.375 130.406,11.9531 L130.016,12.375 M135.719,13 L140.547,13 L140.547,12.4219 L138.047,12.4219 C137.625,12.4219 137.172,12.4531 136.719,12.5 C138.859,10.5 140.156,8.8125 140.156,7.14062 C140.156,5.75 139.328,4.84375 137.938,4.84375 C136.969,4.84375 136.281,5.32812 135.688,5.98438 L136.094,6.375 C136.547,5.8125 137.172,5.375 137.875,5.375 C139,5.375 139.516,6.15625 139.516,7.15625 C139.516,8.60938 138.438,10.2656 135.719,12.6094 L135.719,13 M141.594,13 L146.422,13 L146.422,12.4219 L143.922,12.4219 C143.5,12.4219 143.047,12.4531 142.594,12.5 C144.734,10.5 146.031,8.8125 146.031,7.14062 C146.031,5.75 145.203,4.84375 143.812,4.84375 C142.844,4.84375 142.156,5.32812 141.562,5.98438 L141.969,6.375 C142.422,5.8125 143.047,5.375 143.75,5.375 C144.875,5.375 145.391,6.15625 145.391,7.15625 C145.391,8.60938 144.312,10.2656 141.594,12.6094 L141.594,13 M149.922,13.1406 C151.375,13.1406 152.266,11.7812 152.266,8.96875 C152.266,6.17188 151.375,4.84375 149.922,4.84375 C148.453,4.84375 147.547,6.17188 147.547,8.96875 C147.547,11.7812 148.453,13.1406 149.922,13.1406 M149.922,12.6094 C148.875,12.6094 148.188,11.3906 148.188,8.96875 C148.188,6.57812 148.875,5.375 149.922,5.375 C150.953,5.375 151.641,6.57812 151.641,8.96875 C151.641,11.3906 150.953,12.6094 149.922,12.6094 "/>
</g>

<g fill="none" stroke="#000000" stroke-opacity="1" stroke-width="1" stroke-linecap="square" stroke-linejoin="bevel" transform="matrix(2,0,0,2,1216.67,111)"
font-family="sans" font-size="11" font-weight="100" font-style="normal" 
>
</g>

<g fill="none" stroke="#000000" stroke-opacity="1" stroke-width="1" stroke-linecap="square" stroke-linejoin="bevel" transform="matrix(2,0,0,2,1216.67,111)"
font-family="Ubuntu" font-size="11" font-weight="400" font-style="normal" 
>
</g>

<g fill="none" stroke="#000000" stroke-opacity="1" stroke-width="1" stroke-linecap="square" stroke-linejoin="bevel" transform="matrix(2,0,0,2,-0.0016,256)"
font-family="Ubuntu" font-size="11" font-weight="400" font-style="normal" 
>
</g>

<g fill="none" stroke="#000000" stroke-opacity="1" stroke-width="1" stroke-linecap="square" stroke-linejoin="bevel" transform="matrix(2,0,0,2,-0.0016,256)"
font-family="Ubuntu" font-size="11" font-weight="400" font-style="normal" 
>
</g>

<g fill="none" stroke="#000000" stroke-opacity="1" stroke-width="1" stroke-linecap="square" stroke-linejoin="bevel" transform="matrix(2,0,0,2,-0.0016,256)"
font-family="Ubuntu" font-size="11" font-weight="400" font-style="normal" 
>
</g>

<g fill="none" stroke="#000000" stroke-opacity="1" stroke-width="1" stroke-linecap="square" stroke-linejoin="round" transform="matrix(2,0,0,2,-0.0016,256)"
font-family="Ubuntu" font-size="11" font-weight="400" font-style="normal" 
>
<rect x="353.621" y="-35.5" width="85.9976" height="35"/>
</g>

<g fill="none" stroke="#000000" stroke-opacity="1" stroke-width="1" stroke-linecap="square" stroke-linejoin="bevel" transform="matrix(2,0,0,2,-0.0016,256)"
font-family="Ubuntu" font-size="11" font-weight="400" font-style="normal" 
>
</g>

<g fill="none" stroke="#000000" stroke-opacity="1" stroke-width="1" stroke-linecap="square" stroke-linejoin="bevel" transform="matrix(2,0,0,2,726.723,203)"
font-family="Ubuntu" font-size="11" font-weight="400" font-style="normal" 
>
</g>

<g fill="none" stroke="#000000" stroke-opacity="1" stroke-width="1" stroke-linecap="square" stroke-linejoin="bevel" transform="matrix(2,0,0,2,726.723,203)"
font-family="sans" font-size="11" font-weight="100" font-style="normal" 
>
</g>

<g fill="#000000" fill-opacity="1" stroke="#000000" stroke-opacity="1" stroke-width="1" stroke-linecap="square" stroke-linejoin="round" transform="matrix(2,0,0,2,726.723,203)"
font-family="sans" font-size="11" font-weight="100" font-style="normal" 
>
<path vector-effect="none" fill-rule="nonzero" d="M0.109375,14.9531 L0.625,14.9531 L4.25,4.35938 L3.73438,4.35938 L0.109375,14.9531 M7.17188,13.1406 C7.90625,13.1406 8.54688,12.8281 9.04688,12.3906 L8.73438,11.9375 C8.34375,12.2969 7.8125,12.5938 7.20312,12.5938 C5.96875,12.5938 5.15625,11.5625 5.15625,10.0781 C5.15625,8.57812 6.04688,7.54688 7.21875,7.54688 C7.76562,7.54688 8.20312,7.79688 8.5625,8.14062 L8.92188,7.70312 C8.51562,7.32812 7.98438,6.98438 7.20312,6.98438 C5.75,6.98438 4.48438,8.10938 4.48438,10.0781 C4.48438,12.0156 5.64062,13.1406 7.17188,13.1406 M10.4531,13 L11.0938,13 L11.0938,8.60938 C11.7812,7.90625 12.2656,7.54688 12.9531,7.54688 C13.8438,7.54688 14.2344,8.10938 14.2344,9.34375 L14.2344,13 L14.875,13 L14.875,9.25 C14.875,7.73438 14.3125,6.98438 13.0938,6.98438 C12.2812,6.98438 11.6875,7.4375 11.0938,8.03125 L11.0938,6.76562 L11.0938,4.25 L10.4531,4.25 L10.4531,13 M18.2188,13.1406 C18.9688,13.1406 19.6719,12.7344 20.2656,12.25 L20.2969,12.25 L20.3594,13 L20.9062,13 L20.9062,9.28125 C20.9062,7.98438 20.4062,6.98438 19,6.98438 C18.0469,6.98438 17.2344,7.4375 16.7812,7.75 L17.0781,8.21875 C17.4844,7.90625 18.1562,7.54688 18.9219,7.54688 C20.0312,7.54688 20.2812,8.45312 20.2656,9.3125 C17.6719,9.60938 16.5156,10.2344 16.5156,11.5312 C16.5156,12.6094 17.2812,13.1406 18.2188,13.1406 M18.3594,12.6094 C17.7031,12.6094 17.1562,12.2969 17.1562,11.5 C17.1562,10.5938 17.9531,10.0469 20.2656,9.78125 L20.2656,11.6875 C19.5625,12.2969 19,12.6094 18.3594,12.6094 M24.4531,13.1406 C24.7188,13.1406 25.0938,13.0469 25.4375,12.9219 L25.2812,12.4219 C25.0625,12.5156 24.7812,12.5938 24.5625,12.5938 C23.7812,12.5938 23.5781,12.1094 23.5781,11.375 L23.5781,7.67188 L25.2656,7.67188 L25.2656,7.14062 L23.5781,7.14062 L23.5781,5.4375 L23.0469,5.4375 L22.9688,7.14062 L22.0312,7.1875 L22.0312,7.67188 L22.9531,7.67188 L22.9531,11.3281 C22.9531,12.4219 23.2969,13.1406 24.4531,13.1406 M25.7031,14.4531 L31.5156,14.4531 L31.5156,13.9375 L25.7031,13.9375 L25.7031,14.4531 M34.7031,13.1406 C35.4688,13.1406 36.1094,12.7344 36.5781,12.2656 L36.6094,12.2656 L36.6875,13 L37.2188,13 L37.2188,4.25 L36.5781,4.25 L36.5781,6.64062 L36.625,7.70312 C36.0469,7.25 35.5781,6.98438 34.875,6.98438 C33.4844,6.98438 32.2656,8.1875 32.2656,10.0781 C32.2656,12.0469 33.2344,13.1406 34.7031,13.1406 M34.8125,12.5781 C33.625,12.5781 32.9531,11.5938 32.9531,10.0781 C32.9531,8.625 33.8125,7.54688 34.9375,7.54688 C35.4844,7.54688 35.9844,7.73438 36.5781,8.26562 L36.5781,11.6562 C35.9844,12.2656 35.4375,12.5781 34.8125,12.5781 M41.6406,13.1406 C42.4844,13.1406 43.0312,12.875 43.5156,12.5781 L43.2656,12.0938 C42.8281,12.4062 42.3281,12.6094 41.7031,12.6094 C40.4375,12.6094 39.5938,11.6094 39.5625,10.1719 L43.7188,10.1719 C43.75,10.0312 43.75,9.875 43.75,9.70312 C43.75,8 42.9062,6.98438 41.4844,6.98438 C40.1562,6.98438 38.9062,8.17188 38.9062,10.0781 C38.9062,12 40.1406,13.1406 41.6406,13.1406 M39.5625,9.67188 C39.6875,8.32812 40.5469,7.53125 41.5,7.53125 C42.5156,7.53125 43.1719,8.25 43.1719,9.67188 L39.5625,9.67188 M47.7969,4.3125 C47.5156,4.1875 47.2031,4.10938 46.9062,4.10938 C45.9219,4.10938 45.4062,4.73438 45.4062,5.90625 L45.4062,7.14062 L44.5938,7.1875 L44.5938,7.67188 L45.4062,7.67188 L45.4062,13 L46.0469,13 L46.0469,7.67188 L47.375,7.67188 L47.375,7.14062 L46.0469,7.14062 L46.0469,5.9375 C46.0469,5.10938 46.3125,4.65625 46.9375,4.65625 C47.1562,4.65625 47.3906,4.70312 47.6406,4.8125 L47.7969,4.3125 M49.625,13.1406 C50.375,13.1406 51.0781,12.7344 51.6719,12.25 L51.7031,12.25 L51.7656,13 L52.3125,13 L52.3125,9.28125 C52.3125,7.98438 51.8125,6.98438 50.4062,6.98438 C49.4531,6.98438 48.6406,7.4375 48.1875,7.75 L48.4844,8.21875 C48.8906,7.90625 49.5625,7.54688 50.3281,7.54688 C51.4375,7.54688 51.6875,8.45312 51.6719,9.3125 C49.0781,9.60938 47.9219,10.2344 47.9219,11.5312 C47.9219,12.6094 48.6875,13.1406 49.625,13.1406 M49.7656,12.6094 C49.1094,12.6094 48.5625,12.2969 48.5625,11.5 C48.5625,10.5938 49.3594,10.0469 51.6719,9.78125 L51.6719,11.6875 C50.9688,12.2969 50.4062,12.6094 49.7656,12.6094 M56.0312,13.1406 C56.8438,13.1406 57.4375,12.6875 58.0156,12.0312 L58.0469,12.0312 L58.1094,13 L58.6406,13 L58.6406,7.14062 L58,7.14062 L58,11.4219 C57.3438,12.2188 56.8594,12.5781 56.1719,12.5781 C55.2812,12.5781 54.9062,12.0156 54.9062,10.8125 L54.9062,7.14062 L54.2656,7.14062 L54.2656,10.8906 C54.2656,12.3906 54.8125,13.1406 56.0312,13.1406 M61.6094,13.1406 C61.8281,13.1406 61.9375,13.1094 62.0469,13.0781 L61.9531,12.5781 C61.8281,12.5938 61.7812,12.5938 61.7344,12.5938 C61.5781,12.5938 61.4688,12.4688 61.4688,12.2031 L61.4688,4.25 L60.8281,4.25 L60.8281,12.125 C60.8281,12.8125 61.0938,13.1406 61.6094,13.1406 M65.4062,13.1406 C65.6719,13.1406 66.0469,13.0469 66.3906,12.9219 L66.2344,12.4219 C66.0156,12.5156 65.7344,12.5938 65.5156,12.5938 C64.7344,12.5938 64.5312,12.1094 64.5312,11.375 L64.5312,7.67188 L66.2188,7.67188 L66.2188,7.14062 L64.5312,7.14062 L64.5312,5.4375 L64,5.4375 L63.9219,7.14062 L62.9844,7.1875 L62.9844,7.67188 L63.9062,7.67188 L63.9062,11.3281 C63.9062,12.4219 64.25,13.1406 65.4062,13.1406 "/>
</g>

<g fill="none" stroke="#000000" stroke-opacity="1" stroke-width="1" stroke-linecap="square" stroke-linejoin="bevel" transform="matrix(2,0,0,2,726.723,203)"
font-family="sans" font-size="11" font-weight="100" font-style="normal" 
>
</g>

<g fill="none" stroke="#000000" stroke-opacity="1" stroke-width="1" stroke-linecap="square" stroke-linejoin="bevel" transform="matrix(2,0,0,2,726.723,203)"
font-family="Ubuntu" font-size="11" font-weight="400" font-style="normal" 
>
</g>

<g fill="none" stroke="#000000" stroke-opacity="1" stroke-width="1" stroke-linecap="square" stroke-linejoin="bevel" transform="matrix(2,0,0,2,-0.0016,256)"
font-family="Ubuntu" font-size="11" font-weight="400" font-style="normal" 
>
</g>

<g fill="none" stroke="#000000" stroke-opacity="1" stroke-width="1" stroke-linecap="square" stroke-linejoin="bevel" transform="matrix(2,0,0,2,-0.0016,256)"
font-family="Ubuntu" font-size="11" font-weight="400" font-style="normal" 
>
</g>

<g fill="none" stroke="#000000" stroke-opacity="1" stroke-width="1" stroke-linecap="square" stroke-linejoin="bevel" transform="matrix(2,0,0,2,-0.0016,256)"
font-family="Ubuntu" font-size="11" font-weight="400" font-style="normal" 
>
</g>

<g fill="none" stroke="#000000" stroke-opacity="1" stroke-width="1" stroke-linecap="square" stroke-linejoin="round" transform="matrix(2,0,0,2,-0.0016,256)"
font-family="Ubuntu" font-size="11" font-weight="400" font-style="normal" 
>
<ellipse cx="396.62" cy="-110" rx="53.446" ry="17.5"/>
</g>

<g fill="none" stroke="#000000" stroke-opacity="1" stroke-width="1" stroke-linecap="square" stroke-linejoin="bevel" transform="matrix(2,0,0,2,-0.0016,256)"
font-family="Ubuntu" font-size="11" font-weight="400" font-style="normal" 
>
</g>

<g fill="none" stroke="#000000" stroke-opacity="1" stroke-width="1" stroke-linecap="square" stroke-linejoin="bevel" transform="matrix(2,0,0,2,730.66,19)"
font-family="Ubuntu" font-size="11" font-weight="400" font-style="normal" 
>
</g>

<g fill="none" stroke="#000000" stroke-opacity="1" stroke-width="1" stroke-linecap="square" stroke-linejoin="bevel" transform="matrix(2,0,0,2,730.66,19)"
font-family="sans" font-size="11" font-weight="100" font-style="normal" 
>
</g>

<g fill="#000000" fill-opacity="1" stroke="#000000" stroke-opacity="1" stroke-width="1" stroke-linecap="square" stroke-linejoin="round" transform="matrix(2,0,0,2,730.66,19)"
font-family="sans" font-size="11" font-weight="100" font-style="normal" 
>
<path vector-effect="none" fill-rule="nonzero" d="M0.109375,14.9531 L0.625,14.9531 L4.25,4.35938 L3.73438,4.35938 L0.109375,14.9531 M6.875,13.1406 C8.17188,13.1406 8.875,12.375 8.875,11.4688 C8.875,10.3438 7.89062,10.0156 6.98438,9.67188 C6.3125,9.42188 5.625,9.1875 5.625,8.53125 C5.625,8 6.01562,7.51562 6.89062,7.51562 C7.46875,7.51562 7.89062,7.75 8.28125,8.04688 L8.625,7.60938 C8.17188,7.25 7.54688,6.98438 6.90625,6.98438 C5.6875,6.98438 4.98438,7.70312 4.98438,8.5625 C4.98438,9.57812 5.95312,9.9375 6.82812,10.25 C7.5,10.4844 8.25,10.8125 8.25,11.5 C8.25,12.1094 7.79688,12.6094 6.90625,12.6094 C6.09375,12.6094 5.5625,12.3125 5.04688,11.875 L4.71875,12.3438 C5.23438,12.7812 6.01562,13.1406 6.875,13.1406 M12.6406,13.1406 C13.4844,13.1406 14.0312,12.875 14.5156,12.5781 L14.2656,12.0938 C13.8281,12.4062 13.3281,12.6094 12.7031,12.6094 C11.4375,12.6094 10.5938,11.6094 10.5625,10.1719 L14.7188,10.1719 C14.75,10.0312 14.75,9.875 14.75,9.70312 C14.75,8 13.9062,6.98438 12.4844,6.98438 C11.1562,6.98438 9.90625,8.17188 9.90625,10.0781 C9.90625,12 11.1406,13.1406 12.6406,13.1406 M10.5625,9.67188 C10.6875,8.32812 11.5469,7.53125 12.5,7.53125 C13.5156,7.53125 14.1719,8.25 14.1719,9.67188 L10.5625,9.67188 M16.2969,13 L16.9375,13 L16.9375,9.0625 C17.375,7.96875 18,7.59375 18.5156,7.59375 C18.75,7.59375 18.8594,7.60938 19.0469,7.6875 L19.1875,7.10938 C19,7.01562 18.8281,6.98438 18.5938,6.98438 C17.9062,6.98438 17.3281,7.48438 16.9375,8.21875 L16.9062,8.21875 L16.8281,7.14062 L16.2969,7.14062 L16.2969,13 M20.2344,13 L20.875,13 L20.875,7.14062 L20.2344,7.14062 L20.2344,13 M20.5781,5.76562 C20.8594,5.76562 21.1094,5.54688 21.1094,5.25 C21.1094,4.92188 20.8594,4.73438 20.5781,4.73438 C20.2812,4.73438 20.0312,4.92188 20.0312,5.25 C20.0312,5.54688 20.2812,5.76562 20.5781,5.76562 M24.3438,13.1406 C25.0938,13.1406 25.7969,12.7344 26.3906,12.25 L26.4219,12.25 L26.4844,13 L27.0312,13 L27.0312,9.28125 C27.0312,7.98438 26.5312,6.98438 25.125,6.98438 C24.1719,6.98438 23.3594,7.4375 22.9062,7.75 L23.2031,8.21875 C23.6094,7.90625 24.2812,7.54688 25.0469,7.54688 C26.1562,7.54688 26.4062,8.45312 26.3906,9.3125 C23.7969,9.60938 22.6406,10.2344 22.6406,11.5312 C22.6406,12.6094 23.4062,13.1406 24.3438,13.1406 M24.4844,12.6094 C23.8281,12.6094 23.2812,12.2969 23.2812,11.5 C23.2812,10.5938 24.0781,10.0469 26.3906,9.78125 L26.3906,11.6875 C25.6875,12.2969 25.125,12.6094 24.4844,12.6094 M29.8438,13.1406 C30.0625,13.1406 30.1719,13.1094 30.2812,13.0781 L30.1875,12.5781 C30.0625,12.5938 30.0156,12.5938 29.9688,12.5938 C29.8125,12.5938 29.7031,12.4688 29.7031,12.2031 L29.7031,4.25 L29.0625,4.25 L29.0625,12.125 C29.0625,12.8125 29.3281,13.1406 29.8438,13.1406 M31.0312,14.4531 L36.8438,14.4531 L36.8438,13.9375 L31.0312,13.9375 L31.0312,14.4531 M38.0781,13 L38.7188,13 L38.7188,8.60938 C39.4062,7.90625 39.8906,7.54688 40.5781,7.54688 C41.4688,7.54688 41.8594,8.10938 41.8594,9.34375 L41.8594,13 L42.5,13 L42.5,9.25 C42.5,7.73438 41.9375,6.98438 40.7188,6.98438 C39.9062,6.98438 39.3125,7.4375 38.7188,8.03125 L38.6875,8.03125 L38.6094,7.14062 L38.0781,7.14062 L38.0781,13 M46.7656,13.1406 C48.1875,13.1406 49.4219,12.0156 49.4219,10.0781 C49.4219,8.10938 48.1875,6.98438 46.7656,6.98438 C45.3438,6.98438 44.1094,8.10938 44.1094,10.0781 C44.1094,12.0156 45.3438,13.1406 46.7656,13.1406 M46.7656,12.5938 C45.625,12.5938 44.7812,11.5625 44.7812,10.0781 C44.7812,8.57812 45.625,7.54688 46.7656,7.54688 C47.9062,7.54688 48.7656,8.57812 48.7656,10.0781 C48.7656,11.5625 47.9062,12.5938 46.7656,12.5938 M53.0781,13.1406 C53.8438,13.1406 54.4844,12.7344 54.9531,12.2656 L54.9844,12.2656 L55.0625,13 L55.5938,13 L55.5938,4.25 L54.9531,4.25 L54.9531,6.64062 L55,7.70312 C54.4219,7.25 53.9531,6.98438 53.25,6.98438 C51.8594,6.98438 50.6406,8.1875 50.6406,10.0781 C50.6406,12.0469 51.6094,13.1406 53.0781,13.1406 M53.1875,12.5781 C52,12.5781 51.3281,11.5938 51.3281,10.0781 C51.3281,8.625 52.1875,7.54688 53.3125,7.54688 C53.8594,7.54688 54.3594,7.73438 54.9531,8.26562 L54.9531,11.6562 C54.3594,12.2656 53.8125,12.5781 53.1875,12.5781 M60.0156,13.1406 C60.8594,13.1406 61.4062,12.875 61.8906,12.5781 L61.6406,12.0938 C61.2031,12.4062 60.7031,12.6094 60.0781,12.6094 C58.8125,12.6094 57.9688,11.6094 57.9375,10.1719 L62.0938,10.1719 C62.125,10.0312 62.125,9.875 62.125,9.70312 C62.125,8 61.2812,6.98438 59.8594,6.98438 C58.5312,6.98438 57.2812,8.17188 57.2812,10.0781 C57.2812,12 58.5156,13.1406 60.0156,13.1406 M57.9375,9.67188 C58.0625,8.32812 58.9219,7.53125 59.875,7.53125 C60.8906,7.53125 61.5469,8.25 61.5469,9.67188 L57.9375,9.67188"/>
</g>

<g fill="none" stroke="#000000" stroke-opacity="1" stroke-width="1" stroke-linecap="square" stroke-linejoin="bevel" transform="matrix(2,0,0,2,730.66,19)"
font-family="sans" font-size="11" font-weight="100" font-style="normal" 
>
</g>

<g fill="none" stroke="#000000" stroke-opacity="1" stroke-width="1" stroke-linecap="square" stroke-linejoin="bevel" transform="matrix(2,0,0,2,730.66,19)"
font-family="Ubuntu" font-size="11" font-weight="400" font-style="normal" 
>
</g>

<g fill="none" stroke="#000000" stroke-opacity="1" stroke-width="1" stroke-linecap="square" stroke-linejoin="bevel" transform="matrix(2,0,0,2,-0.0016,256)"
font-family="Ubuntu" font-size="11" font-weight="400" font-style="normal" 
>
</g>

<g fill="none" stroke="#000000" stroke-opacity="1" stroke-width="1" stroke-linecap="square" stroke-linejoin="bevel" transform="matrix(2,0,0,2,-0.0016,256)"
font-family="Ubuntu" font-size="11" font-weight="400" font-style="normal" 
>
</g>

<g fill="none" stroke="#000000" stroke-opacity="1" stroke-width="1" stroke-linecap="square" stroke-linejoin="bevel" transform="matrix(2,0,0,2,-0.0016,256)"
font-family="Ubuntu" font-size="11" font-weight="400" font-style="normal" 
>
</g>

<g fill="none" stroke="#000000" stroke-opacity="1" stroke-width="1" stroke-linecap="square" stroke-linejoin="round" transform="matrix(2,0,0,2,-0.0016,256)"
font-family="Ubuntu" font-size="11" font-weight="400" font-style="normal" 
>
<ellipse cx="122.84" cy="-41" rx="122.339" ry="17.5"/>
</g>

<g fill="none" stroke="#000000" stroke-opacity="1" stroke-width="1" stroke-linecap="square" stroke-linejoin="bevel" transform="matrix(2,0,0,2,-0.0016,256)"
font-family="Ubuntu" font-size="11" font-weight="400" font-style="normal" 
>
</g>

<g fill="none" stroke="#000000" stroke-opacity="1" stroke-width="1" stroke-linecap="square" stroke-linejoin="bevel" transform="matrix(2,0,0,2,92.1159,157)"
font-family="Ubuntu" font-size="11" font-weight="400" font-style="normal" 
>
</g>

<g fill="none" stroke="#000000" stroke-opacity="1" stroke-width="1" stroke-linecap="square" stroke-linejoin="bevel" transform="matrix(2,0,0,2,92.1159,157)"
font-family="sans" font-size="11" font-weight="100" font-style="normal" 
>
</g>

<g fill="#000000" fill-opacity="1" stroke="#000000" stroke-opacity="1" stroke-width="1" stroke-linecap="square" stroke-linejoin="round" transform="matrix(2,0,0,2,92.1159,157)"
font-family="sans" font-size="11" font-weight="100" font-style="normal" 
>
<path vector-effect="none" fill-rule="nonzero" d="M0.109375,14.9531 L0.625,14.9531 L4.25,4.35938 L3.73438,4.35938 L0.109375,14.9531 M7.25,13.1406 C7.51562,13.1406 7.89062,13.0469 8.23438,12.9219 L8.07812,12.4219 C7.85938,12.5156 7.57812,12.5938 7.35938,12.5938 C6.57812,12.5938 6.375,12.1094 6.375,11.375 L6.375,7.67188 L8.0625,7.67188 L8.0625,7.14062 L6.375,7.14062 L6.375,5.4375 L5.84375,5.4375 L5.76562,7.14062 L4.82812,7.1875 L4.82812,7.67188 L5.75,7.67188 L5.75,11.3281 C5.75,12.4219 6.09375,13.1406 7.25,13.1406 M10.5,13.1406 C11.25,13.1406 11.9531,12.7344 12.5469,12.25 L12.5781,12.25 L12.6406,13 L13.1875,13 L13.1875,9.28125 C13.1875,7.98438 12.6875,6.98438 11.2812,6.98438 C10.3281,6.98438 9.51562,7.4375 9.0625,7.75 L9.35938,8.21875 C9.76562,7.90625 10.4375,7.54688 11.2031,7.54688 C12.3125,7.54688 12.5625,8.45312 12.5469,9.3125 C9.95312,9.60938 8.79688,10.2344 8.79688,11.5312 C8.79688,12.6094 9.5625,13.1406 10.5,13.1406 M10.6406,12.6094 C9.98438,12.6094 9.4375,12.2969 9.4375,11.5 C9.4375,10.5938 10.2344,10.0469 12.5469,9.78125 L12.5469,11.6875 C11.8438,12.2969 11.2812,12.6094 10.6406,12.6094 M15.2188,13 L15.8594,13 L15.8594,11.4219 L17.125,9.92188 L19.0156,13 L19.7188,13 L17.5,9.45312 L19.4219,7.14062 L18.6875,7.14062 L15.8906,10.5938 L15.8594,10.5938 L15.8594,4.25 L15.2188,4.25 L15.2188,13 M23.0312,13.1406 C23.875,13.1406 24.4219,12.875 24.9062,12.5781 L24.6562,12.0938 C24.2188,12.4062 23.7188,12.6094 23.0938,12.6094 C21.8281,12.6094 20.9844,11.6094 20.9531,10.1719 L25.1094,10.1719 C25.1406,10.0312 25.1406,9.875 25.1406,9.70312 C25.1406,8 24.2969,6.98438 22.875,6.98438 C21.5469,6.98438 20.2969,8.17188 20.2969,10.0781 C20.2969,12 21.5312,13.1406 23.0312,13.1406 M20.9531,9.67188 C21.0781,8.32812 21.9375,7.53125 22.8906,7.53125 C23.9062,7.53125 24.5625,8.25 24.5625,9.67188 L20.9531,9.67188 M26.6875,13 L27.3281,13 L27.3281,9.0625 C27.7656,7.96875 28.3906,7.59375 28.9062,7.59375 C29.1406,7.59375 29.25,7.60938 29.4375,7.6875 L29.5781,7.10938 C29.3906,7.01562 29.2188,6.98438 28.9844,6.98438 C28.2969,6.98438 27.7188,7.48438 27.3281,8.21875 L27.2969,8.21875 L27.2188,7.14062 L26.6875,7.14062 L26.6875,13 M29.6719,14.4531 L35.4844,14.4531 L35.4844,13.9375 L29.6719,13.9375 L29.6719,14.4531 M36.6406,13 L40.7812,13 L40.7812,12.4375 L39.0938,12.4375 L39.0938,4.98438 L38.5781,4.98438 C38.2031,5.20312 37.7031,5.375 37.0625,5.48438 L37.0625,5.92188 L38.4531,5.92188 L38.4531,12.4375 L36.6406,12.4375 L36.6406,13 M41.6406,14.4531 L47.4531,14.4531 L47.4531,13.9375 L41.6406,13.9375 L41.6406,14.4531 M48.5469,10.1719 L50.7188,7 C50.9531,6.625 51.1719,6.25 51.3594,5.875 L51.4062,5.875 C51.375,6.25 51.3438,6.84375 51.3438,7.21875 L51.3438,10.1719 L48.5469,10.1719 M53.1094,10.1719 L51.9688,10.1719 L51.9688,4.98438 L51.3438,4.98438 L47.7969,10.2969 L47.7969,10.7188 L51.3438,10.7188 L51.3438,13 L51.9688,13 L51.9688,10.7188 L53.1094,10.7188 L53.1094,10.1719 M54.4219,10.1719 L56.5938,7 C56.8281,6.625 57.0469,6.25 57.2344,5.875 L57.2812,5.875 C57.25,6.25 57.2188,6.84375 57.2188,7.21875 L57.2188,10.1719 L54.4219,10.1719 M58.9844,10.1719 L57.8438,10.1719 L57.8438,4.98438 L57.2188,4.98438 L53.6719,10.2969 L53.6719,10.7188 L57.2188,10.7188 L57.2188,13 L57.8438,13 L57.8438,10.7188 L58.9844,10.7188 L58.9844,10.1719 M62.5781,12.6094 C61.3594,12.6094 60.7344,11.4844 60.625,9.71875 C61.25,8.89062 61.9375,8.57812 62.4688,8.57812 C63.6094,8.57812 64.0938,9.40625 64.0938,10.5781 C64.0938,11.75 63.4531,12.6094 62.5781,12.6094 M64.5781,5.60938 C64.1562,5.14062 63.625,4.84375 62.875,4.84375 C61.375,4.84375 60,5.98438 60,9.21875 C60,11.7656 61.0156,13.1406 62.5625,13.1406 C63.7344,13.1406 64.7344,12.0938 64.7344,10.5781 C64.7344,8.92188 63.9219,8.0625 62.5625,8.0625 C61.8594,8.0625 61.1406,8.45312 60.625,9.10938 C60.6562,6.34375 61.6719,5.39062 62.8906,5.39062 C63.375,5.39062 63.8594,5.60938 64.2031,6.03125 L64.5781,5.60938 M65.7188,13 L70.5469,13 L70.5469,12.4219 L68.0469,12.4219 C67.625,12.4219 67.1719,12.4531 66.7188,12.5 C68.8594,10.5 70.1562,8.8125 70.1562,7.14062 C70.1562,5.75 69.3281,4.84375 67.9375,4.84375 C66.9688,4.84375 66.2812,5.32812 65.6875,5.98438 L66.0938,6.375 C66.5469,5.8125 67.1719,5.375 67.875,5.375 C69,5.375 69.5156,6.15625 69.5156,7.15625 C69.5156,8.60938 68.4375,10.2656 65.7188,12.6094 L65.7188,13 M71.2344,14.4531 L77.0469,14.4531 L77.0469,13.9375 L71.2344,13.9375 L71.2344,14.4531 M78.2031,13 L82.3438,13 L82.3438,12.4375 L80.6562,12.4375 L80.6562,4.98438 L80.1406,4.98438 C79.7656,5.20312 79.2656,5.375 78.625,5.48438 L78.625,5.92188 L80.0156,5.92188 L80.0156,12.4375 L78.2031,12.4375 L78.2031,13 M85.8438,13.1406 C87.125,13.1406 88.3594,12.1562 88.3594,10.4219 C88.3594,8.64062 87.2969,7.84375 85.9844,7.84375 C85.4219,7.84375 85.0156,8 84.6406,8.23438 L84.8594,5.54688 L87.9531,5.54688 L87.9531,4.98438 L84.2969,4.98438 L84.0156,8.64062 L84.4375,8.89062 C84.8906,8.59375 85.2812,8.39062 85.8594,8.39062 C86.9844,8.39062 87.6875,9.17188 87.6875,10.4531 C87.6875,11.75 86.8438,12.5938 85.8281,12.5938 C84.7812,12.5938 84.1875,12.125 83.7188,11.6406 L83.375,12.0938 C83.8906,12.6094 84.6094,13.1406 85.8438,13.1406 M89.8906,10.1719 L92.0625,7 C92.2969,6.625 92.5156,6.25 92.7031,5.875 L92.75,5.875 C92.7188,6.25 92.6875,6.84375 92.6875,7.21875 L92.6875,10.1719 L89.8906,10.1719 M94.4531,10.1719 L93.3125,10.1719 L93.3125,4.98438 L92.6875,4.98438 L89.1406,10.2969 L89.1406,10.7188 L92.6875,10.7188 L92.6875,13 L93.3125,13 L93.3125,10.7188 L94.4531,10.7188 L94.4531,10.1719 M97.7656,13.1406 C99.2188,13.1406 100.109,11.7812 100.109,8.96875 C100.109,6.17188 99.2188,4.84375 97.7656,4.84375 C96.2969,4.84375 95.3906,6.17188 95.3906,8.96875 C95.3906,11.7812 96.2969,13.1406 97.7656,13.1406 M97.7656,12.6094 C96.7188,12.6094 96.0312,11.3906 96.0312,8.96875 C96.0312,6.57812 96.7188,5.375 97.7656,5.375 C98.7969,5.375 99.4844,6.57812 99.4844,8.96875 C99.4844,11.3906 98.7969,12.6094 97.7656,12.6094 M102.938,13 L103.641,13 C103.75,9.85938 104.156,7.85938 106.062,5.35938 L106.062,4.98438 L101.219,4.98438 L101.219,5.54688 L105.281,5.54688 C103.688,7.76562 103.078,9.79688 102.938,13 M107.062,13 L111.891,13 L111.891,12.4219 L109.391,12.4219 C108.969,12.4219 108.516,12.4531 108.062,12.5 C110.203,10.5 111.5,8.8125 111.5,7.14062 C111.5,5.75 110.672,4.84375 109.281,4.84375 C108.312,4.84375 107.625,5.32812 107.031,5.98438 L107.438,6.375 C107.891,5.8125 108.516,5.375 109.219,5.375 C110.344,5.375 110.859,6.15625 110.859,7.15625 C110.859,8.60938 109.781,10.2656 107.062,12.6094 L107.062,13 M113.391,10.1719 L115.562,7 C115.797,6.625 116.016,6.25 116.203,5.875 L116.25,5.875 C116.219,6.25 116.188,6.84375 116.188,7.21875 L116.188,10.1719 L113.391,10.1719 M117.953,10.1719 L116.812,10.1719 L116.812,4.98438 L116.188,4.98438 L112.641,10.2969 L112.641,10.7188 L116.188,10.7188 L116.188,13 L116.812,13 L116.812,10.7188 L117.953,10.7188 L117.953,10.1719 M120.562,13 L121.266,13 C121.375,9.85938 121.781,7.85938 123.688,5.35938 L123.688,4.98438 L118.844,4.98438 L118.844,5.54688 L122.906,5.54688 C121.312,7.76562 120.703,9.79688 120.562,13 M126.938,9.40625 C125.828,9.40625 125.328,8.5625 125.328,7.40625 C125.328,6.23438 125.984,5.35938 126.844,5.35938 C128.109,5.35938 128.734,6.46875 128.812,8.21875 C128.203,9.0625 127.531,9.40625 126.938,9.40625 M124.859,12.375 C125.281,12.8281 125.844,13.1406 126.625,13.1406 C128.094,13.1406 129.453,11.9375 129.453,8.5625 C129.453,6.14062 128.406,4.84375 126.859,4.84375 C125.688,4.84375 124.688,5.89062 124.688,7.40625 C124.688,9.03125 125.516,9.92188 126.859,9.92188 C127.609,9.92188 128.297,9.48438 128.812,8.85938 C128.75,11.625 127.75,12.5938 126.641,12.5938 C126.094,12.5938 125.609,12.375 125.25,11.9531 L124.859,12.375 M132.312,13 L133.016,13 C133.125,9.85938 133.531,7.85938 135.438,5.35938 L135.438,4.98438 L130.594,4.98438 L130.594,5.54688 L134.656,5.54688 C133.062,7.76562 132.453,9.79688 132.312,13 M138.688,9.40625 C137.578,9.40625 137.078,8.5625 137.078,7.40625 C137.078,6.23438 137.734,5.35938 138.594,5.35938 C139.859,5.35938 140.484,6.46875 140.562,8.21875 C139.953,9.0625 139.281,9.40625 138.688,9.40625 M136.609,12.375 C137.031,12.8281 137.594,13.1406 138.375,13.1406 C139.844,13.1406 141.203,11.9375 141.203,8.5625 C141.203,6.14062 140.156,4.84375 138.609,4.84375 C137.438,4.84375 136.438,5.89062 136.438,7.40625 C136.438,9.03125 137.266,9.92188 138.609,9.92188 C139.359,9.92188 140.047,9.48438 140.562,8.85938 C140.5,11.625 139.5,12.5938 138.391,12.5938 C137.844,12.5938 137.359,12.375 137,11.9531 L136.609,12.375 M144.797,13.1406 C146.219,13.1406 147.188,12.2344 147.188,11.1094 C147.188,10 146.516,9.42188 145.828,9.01562 L145.828,8.96875 C146.281,8.59375 146.922,7.84375 146.922,6.96875 C146.922,5.76562 146.141,4.875 144.812,4.875 C143.641,4.875 142.734,5.6875 142.734,6.84375 C142.734,7.70312 143.266,8.29688 143.844,8.67188 L143.844,8.71875 C143.094,9.125 142.312,9.90625 142.312,11.0156 C142.312,12.2344 143.359,13.1406 144.797,13.1406 M145.359,8.78125 C144.359,8.39062 143.359,7.9375 143.359,6.84375 C143.359,6 143.953,5.39062 144.797,5.39062 C145.766,5.39062 146.328,6.125 146.328,7 C146.328,7.65625 146,8.26562 145.359,8.78125 M144.797,12.625 C143.703,12.625 142.906,11.9062 142.906,10.9688 C142.906,10.1094 143.469,9.40625 144.219,8.96875 C145.438,9.4375 146.547,9.875 146.547,11.0938 C146.547,11.9531 145.859,12.625 144.797,12.625 M148.188,13 L153.016,13 L153.016,12.4219 L150.516,12.4219 C150.094,12.4219 149.641,12.4531 149.188,12.5 C151.328,10.5 152.625,8.8125 152.625,7.14062 C152.625,5.75 151.797,4.84375 150.406,4.84375 C149.438,4.84375 148.75,5.32812 148.156,5.98438 L148.562,6.375 C149.016,5.8125 149.641,5.375 150.344,5.375 C151.469,5.375 151.984,6.15625 151.984,7.15625 C151.984,8.60938 150.906,10.2656 148.188,12.6094 L148.188,13"/>
</g>

<g fill="none" stroke="#000000" stroke-opacity="1" stroke-width="1" stroke-linecap="square" stroke-linejoin="bevel" transform="matrix(2,0,0,2,92.1159,157)"
font-family="sans" font-size="11" font-weight="100" font-style="normal" 
>
</g>

<g fill="none" stroke="#000000" stroke-opacity="1" stroke-width="1" stroke-linecap="square" stroke-linejoin="bevel" transform="matrix(2,0,0,2,92.1159,157)"
font-family="Ubuntu" font-size="11" font-weight="400" font-style="normal" 
>
</g>

<g fill="none" stroke="#000000" stroke-opacity="1" stroke-width="1" stroke-linecap="square" stroke-linejoin="bevel" transform="matrix(2,0,0,2,-0.0016,256)"
font-family="Ubuntu" font-size="11" font-weight="400" font-style="normal" 
>
</g>

<g fill="none" stroke="#000000" stroke-opacity="1" stroke-width="1" stroke-linecap="square" stroke-linejoin="bevel" transform="matrix(2,0,0,2,-0.0016,256)"
font-family="Ubuntu" font-size="11" font-weight="400" font-style="normal" 
>
</g>

<g fill="none" stroke="#000000" stroke-opacity="1" stroke-width="1" stroke-linecap="square" stroke-linejoin="bevel" transform="matrix(2,0,0,2,-0.0016,256)"
font-family="Ubuntu" font-size="11" font-weight="400" font-style="normal" 
>
</g>

<g fill="none" stroke="#000000" stroke-opacity="1" stroke-width="1" stroke-linecap="square" stroke-linejoin="round" transform="matrix(2,0,0,2,-0.0016,256)"
font-family="Ubuntu" font-size="11" font-weight="400" font-style="normal" 
>
<rect x="260.18" y="-81.5" width="67.9998" height="35"/>
</g>

<g fill="none" stroke="#000000" stroke-opacity="1" stroke-width="1" stroke-linecap="square" stroke-linejoin="bevel" transform="matrix(2,0,0,2,-0.0016,256)"
font-family="Ubuntu" font-size="11" font-weight="400" font-style="normal" 
>
</g>

<g fill="none" stroke="#000000" stroke-opacity="1" stroke-width="1" stroke-linecap="square" stroke-linejoin="bevel" transform="matrix(2,0,0,2,542.218,111)"
font-family="Ubuntu" font-size="11" font-weight="400" font-style="normal" 
>
</g>

<g fill="none" stroke="#000000" stroke-opacity="1" stroke-width="1" stroke-linecap="square" stroke-linejoin="bevel" transform="matrix(2,0,0,2,542.218,111)"
font-family="sans" font-size="11" font-weight="100" font-style="normal" 
>
</g>

<g fill="#000000" fill-opacity="1" stroke="#000000" stroke-opacity="1" stroke-width="1" stroke-linecap="square" stroke-linejoin="round" transform="matrix(2,0,0,2,542.218,111)"
font-family="sans" font-size="11" font-weight="100" font-style="normal" 
>
<path vector-effect="none" fill-rule="nonzero" d="M0.109375,14.9531 L0.625,14.9531 L4.25,4.35938 L3.73438,4.35938 L0.109375,14.9531 M7.20312,13 L7.875,13 L7.875,5.54688 L10.4062,5.54688 L10.4062,4.98438 L4.6875,4.98438 L4.6875,5.54688 L7.20312,5.54688 L7.20312,13 M13.2812,13.1406 C14.7031,13.1406 15.9375,12.0156 15.9375,10.0781 C15.9375,8.10938 14.7031,6.98438 13.2812,6.98438 C11.8594,6.98438 10.625,8.10938 10.625,10.0781 C10.625,12.0156 11.8594,13.1406 13.2812,13.1406 M13.2812,12.5938 C12.1406,12.5938 11.2969,11.5625 11.2969,10.0781 C11.2969,8.57812 12.1406,7.54688 13.2812,7.54688 C14.4219,7.54688 15.2812,8.57812 15.2812,10.0781 C15.2812,11.5625 14.4219,12.5938 13.2812,12.5938 M16.6875,14.4531 L22.5,14.4531 L22.5,13.9375 L16.6875,13.9375 L16.6875,14.4531 M24.8906,13 L25.5938,13 C25.7031,9.85938 26.1094,7.85938 28.0156,5.35938 L28.0156,4.98438 L23.1719,4.98438 L23.1719,5.54688 L27.2344,5.54688 C25.6406,7.76562 25.0312,9.79688 24.8906,13 M31.75,12.6094 C30.5312,12.6094 29.9062,11.4844 29.7969,9.71875 C30.4219,8.89062 31.1094,8.57812 31.6406,8.57812 C32.7812,8.57812 33.2656,9.40625 33.2656,10.5781 C33.2656,11.75 32.625,12.6094 31.75,12.6094 M33.75,5.60938 C33.3281,5.14062 32.7969,4.84375 32.0469,4.84375 C30.5469,4.84375 29.1719,5.98438 29.1719,9.21875 C29.1719,11.7656 30.1875,13.1406 31.7344,13.1406 C32.9062,13.1406 33.9062,12.0938 33.9062,10.5781 C33.9062,8.92188 33.0938,8.0625 31.7344,8.0625 C31.0312,8.0625 30.3125,8.45312 29.7969,9.10938 C29.8281,6.34375 30.8438,5.39062 32.0625,5.39062 C32.5469,5.39062 33.0312,5.60938 33.375,6.03125 L33.75,5.60938 M37.1406,9.40625 C36.0312,9.40625 35.5312,8.5625 35.5312,7.40625 C35.5312,6.23438 36.1875,5.35938 37.0469,5.35938 C38.3125,5.35938 38.9375,6.46875 39.0156,8.21875 C38.4062,9.0625 37.7344,9.40625 37.1406,9.40625 M35.0625,12.375 C35.4844,12.8281 36.0469,13.1406 36.8281,13.1406 C38.2969,13.1406 39.6562,11.9375 39.6562,8.5625 C39.6562,6.14062 38.6094,4.84375 37.0625,4.84375 C35.8906,4.84375 34.8906,5.89062 34.8906,7.40625 C34.8906,9.03125 35.7188,9.92188 37.0625,9.92188 C37.8125,9.92188 38.5,9.48438 39.0156,8.85938 C38.9531,11.625 37.9531,12.5938 36.8438,12.5938 C36.2969,12.5938 35.8125,12.375 35.4531,11.9531 L35.0625,12.375 M42.5156,13 L43.2188,13 C43.3281,9.85938 43.7344,7.85938 45.6406,5.35938 L45.6406,4.98438 L40.7969,4.98438 L40.7969,5.54688 L44.8594,5.54688 C43.2656,7.76562 42.6562,9.79688 42.5156,13 "/>
</g>

<g fill="none" stroke="#000000" stroke-opacity="1" stroke-width="1" stroke-linecap="square" stroke-linejoin="bevel" transform="matrix(2,0,0,2,542.218,111)"
font-family="sans" font-size="11" font-weight="100" font-style="normal" 
>
</g>

<g fill="none" stroke="#000000" stroke-opacity="1" stroke-width="1" stroke-linecap="square" stroke-linejoin="bevel" transform="matrix(2,0,0,2,542.218,111)"
font-family="Ubuntu" font-size="11" font-weight="400" font-style="normal" 
>
</g>

<g fill="none" stroke="#000000" stroke-opacity="1" stroke-width="1" stroke-linecap="square" stroke-linejoin="bevel" transform="matrix(2,0,0,2,-0.0016,256)"
font-family="Ubuntu" font-size="11" font-weight="400" font-style="normal" 
>
</g>

<g fill="none" stroke="#000000" stroke-opacity="1" stroke-width="1" stroke-linecap="square" stroke-linejoin="bevel" transform="matrix(2,0,0,2,-0.0016,256)"
font-family="Ubuntu" font-size="11" font-weight="400" font-style="normal" 
>
</g>

<g fill="none" stroke="#000000" stroke-opacity="1" stroke-width="1" stroke-linecap="square" stroke-linejoin="bevel" transform="matrix(2,0,0,2,-0.0016,256)"
font-family="Ubuntu" font-size="11" font-weight="400" font-style="normal" 
>
</g>

<g fill="none" stroke="#000000" stroke-opacity="1" stroke-width="1" stroke-linecap="square" stroke-linejoin="round" transform="matrix(2,0,0,2,-0.0016,256)"
font-family="Ubuntu" font-size="11" font-weight="400" font-style="normal" 
>
<rect x="465.069" y="-127.5" width="83.0024" height="35"/>
</g>

<g fill="none" stroke="#000000" stroke-opacity="1" stroke-width="1" stroke-linecap="square" stroke-linejoin="bevel" transform="matrix(2,0,0,2,-0.0016,256)"
font-family="Ubuntu" font-size="11" font-weight="400" font-style="normal" 
>
</g>

<g fill="none" stroke="#000000" stroke-opacity="1" stroke-width="1" stroke-linecap="square" stroke-linejoin="bevel" transform="matrix(2,0,0,2,953.31,19)"
font-family="Ubuntu" font-size="11" font-weight="400" font-style="normal" 
>
</g>

<g fill="none" stroke="#000000" stroke-opacity="1" stroke-width="1" stroke-linecap="square" stroke-linejoin="bevel" transform="matrix(2,0,0,2,953.31,19)"
font-family="sans" font-size="11" font-weight="100" font-style="normal" 
>
</g>

<g fill="#000000" fill-opacity="1" stroke="#000000" stroke-opacity="1" stroke-width="1" stroke-linecap="square" stroke-linejoin="round" transform="matrix(2,0,0,2,953.31,19)"
font-family="sans" font-size="11" font-weight="100" font-style="normal" 
>
<path vector-effect="none" fill-rule="nonzero" d="M0.109375,14.9531 L0.625,14.9531 L4.25,4.35938 L3.73438,4.35938 L0.109375,14.9531 M5.5,13 L6.15625,13 L6.15625,9.1875 L9.32812,9.1875 L9.32812,8.625 L6.15625,8.625 L6.15625,5.54688 L9.92188,5.54688 L9.92188,4.98438 L5.5,4.98438 L5.5,13 M11.0312,13 L11.6719,13 L11.6719,9.0625 C12.1094,7.96875 12.7344,7.59375 13.25,7.59375 C13.4844,7.59375 13.5938,7.60938 13.7812,7.6875 L13.9219,7.10938 C13.7344,7.01562 13.5625,6.98438 13.3281,6.98438 C12.6406,6.98438 12.0625,7.48438 11.6719,8.21875 L11.6406,8.21875 L11.5625,7.14062 L11.0312,7.14062 L11.0312,13 M17.0312,13.1406 C18.4531,13.1406 19.6875,12.0156 19.6875,10.0781 C19.6875,8.10938 18.4531,6.98438 17.0312,6.98438 C15.6094,6.98438 14.375,8.10938 14.375,10.0781 C14.375,12.0156 15.6094,13.1406 17.0312,13.1406 M17.0312,12.5938 C15.8906,12.5938 15.0469,11.5625 15.0469,10.0781 C15.0469,8.57812 15.8906,7.54688 17.0312,7.54688 C18.1719,7.54688 19.0312,8.57812 19.0312,10.0781 C19.0312,11.5625 18.1719,12.5938 17.0312,12.5938 M21.3906,13 L22.0312,13 L22.0312,8.60938 C22.6562,7.90625 23.2188,7.54688 23.7344,7.54688 C24.5938,7.54688 25,8.10938 25,9.34375 L25,13 L25.625,13 L25.625,8.60938 C26.2656,7.90625 26.7969,7.54688 27.3281,7.54688 C28.1875,7.54688 28.5938,8.10938 28.5938,9.34375 L28.5938,13 L29.2344,13 L29.2344,9.25 C29.2344,7.73438 28.6406,6.98438 27.4688,6.98438 C26.7812,6.98438 26.1562,7.45312 25.4844,8.17188 C25.2812,7.45312 24.8125,6.98438 23.875,6.98438 C23.2188,6.98438 22.5469,7.4375 22.0312,8.03125 L22,8.03125 L21.9219,7.14062 L21.3906,7.14062 L21.3906,13 M30.375,14.4531 L36.1875,14.4531 L36.1875,13.9375 L30.375,13.9375 L30.375,14.4531 M38.5781,13 L39.2812,13 C39.3906,9.85938 39.7969,7.85938 41.7031,5.35938 L41.7031,4.98438 L36.8594,4.98438 L36.8594,5.54688 L40.9219,5.54688 C39.3281,7.76562 38.7188,9.79688 38.5781,13 M45.4375,12.6094 C44.2188,12.6094 43.5938,11.4844 43.4844,9.71875 C44.1094,8.89062 44.7969,8.57812 45.3281,8.57812 C46.4688,8.57812 46.9531,9.40625 46.9531,10.5781 C46.9531,11.75 46.3125,12.6094 45.4375,12.6094 M47.4375,5.60938 C47.0156,5.14062 46.4844,4.84375 45.7344,4.84375 C44.2344,4.84375 42.8594,5.98438 42.8594,9.21875 C42.8594,11.7656 43.875,13.1406 45.4219,13.1406 C46.5938,13.1406 47.5938,12.0938 47.5938,10.5781 C47.5938,8.92188 46.7812,8.0625 45.4219,8.0625 C44.7188,8.0625 44,8.45312 43.4844,9.10938 C43.5156,6.34375 44.5312,5.39062 45.75,5.39062 C46.2344,5.39062 46.7188,5.60938 47.0625,6.03125 L47.4375,5.60938 M50.8281,9.40625 C49.7188,9.40625 49.2188,8.5625 49.2188,7.40625 C49.2188,6.23438 49.875,5.35938 50.7344,5.35938 C52,5.35938 52.625,6.46875 52.7031,8.21875 C52.0938,9.0625 51.4219,9.40625 50.8281,9.40625 M48.75,12.375 C49.1719,12.8281 49.7344,13.1406 50.5156,13.1406 C51.9844,13.1406 53.3438,11.9375 53.3438,8.5625 C53.3438,6.14062 52.2969,4.84375 50.75,4.84375 C49.5781,4.84375 48.5781,5.89062 48.5781,7.40625 C48.5781,9.03125 49.4062,9.92188 50.75,9.92188 C51.5,9.92188 52.1875,9.48438 52.7031,8.85938 C52.6406,11.625 51.6406,12.5938 50.5312,12.5938 C49.9844,12.5938 49.5,12.375 49.1406,11.9531 L48.75,12.375 M56.2031,13 L56.9062,13 C57.0156,9.85938 57.4219,7.85938 59.3281,5.35938 L59.3281,4.98438 L54.4844,4.98438 L54.4844,5.54688 L58.5469,5.54688 C56.9531,7.76562 56.3438,9.79688 56.2031,13 "/>
</g>

<g fill="none" stroke="#000000" stroke-opacity="1" stroke-width="1" stroke-linecap="square" stroke-linejoin="bevel" transform="matrix(2,0,0,2,953.31,19)"
font-family="sans" font-size="11" font-weight="100" font-style="normal" 
>
</g>

<g fill="none" stroke="#000000" stroke-opacity="1" stroke-width="1" stroke-linecap="square" stroke-linejoin="bevel" transform="matrix(2,0,0,2,953.31,19)"
font-family="Ubuntu" font-size="11" font-weight="400" font-style="normal" 
>
</g>

<g fill="none" stroke="#000000" stroke-opacity="1" stroke-width="1" stroke-linecap="square" stroke-linejoin="bevel" transform="matrix(2,0,0,2,-0.0016,256)"
font-family="Ubuntu" font-size="11" font-weight="400" font-style="normal" 
>
</g>

<g fill="none" stroke="#000000" stroke-opacity="1" stroke-width="1" stroke-linecap="square" stroke-linejoin="bevel" transform="matrix(2,0,0,2,-0.0016,256)"
font-family="Ubuntu" font-size="11" font-weight="400" font-style="normal" 
>
</g>

<g fill="none" stroke="#000000" stroke-opacity="1" stroke-width="1" stroke-linecap="square" stroke-linejoin="bevel" transform="matrix(2,0,0,2,-0.0016,256)"
font-family="Ubuntu" font-size="11" font-weight="400" font-style="normal" 
>
</g>

<g fill="none" stroke="#000000" stroke-opacity="1" stroke-width="1" stroke-linecap="square" stroke-linejoin="round" transform="matrix(2,0,0,2,-0.0016,256)"
font-family="Ubuntu" font-size="11" font-weight="400" font-style="normal" 
>
<path vector-effect="none" fill-rule="evenodd" d="M229.7,-32.042 C268.43,-28.764 310.59,-25.196 342.72,-22.477 "/>
</g>

<g fill="none" stroke="#000000" stroke-opacity="1" stroke-width="1" stroke-linecap="square" stroke-linejoin="bevel" transform="matrix(2,0,0,2,-0.0016,256)"
font-family="Ubuntu" font-size="11" font-weight="400" font-style="normal" 
>
</g>

<g fill="none" stroke="#000000" stroke-opacity="1" stroke-width="1" stroke-linecap="square" stroke-linejoin="bevel" transform="matrix(2,0,0,2,-0.0016,256)"
font-family="Ubuntu" font-size="11" font-weight="400" font-style="normal" 
>
</g>

<g fill="#000000" fill-opacity="1" stroke="#000000" stroke-opacity="1" stroke-width="1" stroke-linecap="square" stroke-linejoin="round" transform="matrix(2,0,0,2,-0.0016,256)"
font-family="Ubuntu" font-size="11" font-weight="400" font-style="normal" 
>
<path vector-effect="none" fill-rule="evenodd" d="M342.72,-22.477 L342.422,-18.956 L352.78,-21.625 L343.018,-25.998 L342.72,-22.477"/>
</g>

<g fill="none" stroke="#000000" stroke-opacity="1" stroke-width="1" stroke-linecap="square" stroke-linejoin="bevel" transform="matrix(2,0,0,2,-0.0016,256)"
font-family="Ubuntu" font-size="11" font-weight="400" font-style="normal" 
>
</g>

<g fill="none" stroke="#000000" stroke-opacity="1" stroke-width="1" stroke-linecap="square" stroke-linejoin="bevel" transform="matrix(2,0,0,2,-0.0016,256)"
font-family="Ubuntu" font-size="11" font-weight="400" font-style="normal" 
>
</g>

<g fill="none" stroke="#000000" stroke-opacity="1" stroke-width="1" stroke-linecap="square" stroke-linejoin="bevel" transform="matrix(2,0,0,2,-0.0016,256)"
font-family="Ubuntu" font-size="11" font-weight="400" font-style="normal" 
>
</g>

<g fill="none" stroke="#000000" stroke-opacity="1" stroke-width="1" stroke-linecap="square" stroke-linejoin="bevel" transform="matrix(2,0,0,2,-0.0016,256)"
font-family="Ubuntu" font-size="11" font-weight="400" font-style="normal" 
>
</g>

<g fill="none" stroke="#000000" stroke-opacity="1" stroke-width="1" stroke-linecap="square" stroke-linejoin="round" transform="matrix(2,0,0,2,-0.0016,256)"
font-family="Ubuntu" font-size="11" font-weight="400" font-style="normal" 
>
<path vector-effect="none" fill-rule="evenodd" d="M440.15,-24.837 C479.92,-31.231 540.65,-40.994 591.53,-49.173 "/>
</g>

<g fill="none" stroke="#000000" stroke-opacity="1" stroke-width="1" stroke-linecap="square" stroke-linejoin="bevel" transform="matrix(2,0,0,2,-0.0016,256)"
font-family="Ubuntu" font-size="11" font-weight="400" font-style="normal" 
>
</g>

<g fill="none" stroke="#000000" stroke-opacity="1" stroke-width="1" stroke-linecap="square" stroke-linejoin="bevel" transform="matrix(2,0,0,2,-0.0016,256)"
font-family="Ubuntu" font-size="11" font-weight="400" font-style="normal" 
>
</g>

<g fill="#000000" fill-opacity="1" stroke="#000000" stroke-opacity="1" stroke-width="1" stroke-linecap="square" stroke-linejoin="round" transform="matrix(2,0,0,2,-0.0016,256)"
font-family="Ubuntu" font-size="11" font-weight="400" font-style="normal" 
>
<path vector-effect="none" fill-rule="evenodd" d="M591.53,-49.173 L592.095,-45.6625 L601.56,-50.786 L590.965,-52.6835 L591.53,-49.173"/>
</g>

<g fill="none" stroke="#000000" stroke-opacity="1" stroke-width="1" stroke-linecap="square" stroke-linejoin="bevel" transform="matrix(2,0,0,2,-0.0016,256)"
font-family="Ubuntu" font-size="11" font-weight="400" font-style="normal" 
>
</g>

<g fill="none" stroke="#000000" stroke-opacity="1" stroke-width="1" stroke-linecap="square" stroke-linejoin="bevel" transform="matrix(2,0,0,2,-0.0016,256)"
font-family="Ubuntu" font-size="11" font-weight="400" font-style="normal" 
>
</g>

<g fill="none" stroke="#000000" stroke-opacity="1" stroke-width="1" stroke-linecap="square" stroke-linejoin="bevel" transform="matrix(2,0,0,2,-0.0016,256)"
font-family="Ubuntu" font-size="11" font-weight="400" font-style="normal" 
>
</g>

<g fill="none" stroke="#000000" stroke-opacity="1" stroke-width="1" stroke-linecap="square" stroke-linejoin="bevel" transform="matrix(2,0,0,2,-0.0016,256)"
font-family="Ubuntu" font-size="11" font-weight="400" font-style="normal" 
>
</g>

<g fill="none" stroke="#000000" stroke-opacity="1" stroke-width="1" stroke-linecap="square" stroke-linejoin="round" transform="matrix(2,0,0,2,-0.0016,256)"
font-family="Ubuntu" font-size="11" font-weight="400" font-style="normal" 
>
<path vector-effect="none" fill-rule="evenodd" d="M328.98,-64 C378.39,-64 473.04,-64 552.16,-64 "/>
</g>

<g fill="none" stroke="#000000" stroke-opacity="1" stroke-width="1" stroke-linecap="square" stroke-linejoin="bevel" transform="matrix(2,0,0,2,-0.0016,256)"
font-family="Ubuntu" font-size="11" font-weight="400" font-style="normal" 
>
</g>

<g fill="none" stroke="#000000" stroke-opacity="1" stroke-width="1" stroke-linecap="square" stroke-linejoin="bevel" transform="matrix(2,0,0,2,-0.0016,256)"
font-family="Ubuntu" font-size="11" font-weight="400" font-style="normal" 
>
</g>

<g fill="#000000" fill-opacity="1" stroke="#000000" stroke-opacity="1" stroke-width="1" stroke-linecap="square" stroke-linejoin="round" transform="matrix(2,0,0,2,-0.0016,256)"
font-family="Ubuntu" font-size="11" font-weight="400" font-style="normal" 
>
<path vector-effect="none" fill-rule="evenodd" d="M552.16,-64 L552.16,-60.479 L562.22,-64 L552.16,-67.521 L552.16,-64"/>
</g>

<g fill="none" stroke="#000000" stroke-opacity="1" stroke-width="1" stroke-linecap="square" stroke-linejoin="bevel" transform="matrix(2,0,0,2,-0.0016,256)"
font-family="Ubuntu" font-size="11" font-weight="400" font-style="normal" 
>
</g>

<g fill="none" stroke="#000000" stroke-opacity="1" stroke-width="1" stroke-linecap="square" stroke-linejoin="bevel" transform="matrix(2,0,0,2,-0.0016,256)"
font-family="Ubuntu" font-size="11" font-weight="400" font-style="normal" 
>
</g>

<g fill="none" stroke="#000000" stroke-opacity="1" stroke-width="1" stroke-linecap="square" stroke-linejoin="bevel" transform="matrix(2,0,0,2,-0.0016,256)"
font-family="Ubuntu" font-size="11" font-weight="400" font-style="normal" 
>
</g>

<g fill="none" stroke="#000000" stroke-opacity="1" stroke-width="1" stroke-linecap="square" stroke-linejoin="bevel" transform="matrix(2,0,0,2,-0.0016,256)"
font-family="Ubuntu" font-size="11" font-weight="400" font-style="normal" 
>
</g>

<g fill="none" stroke="#000000" stroke-opacity="1" stroke-width="1" stroke-linecap="square" stroke-linejoin="round" transform="matrix(2,0,0,2,-0.0016,256)"
font-family="Ubuntu" font-size="11" font-weight="400" font-style="normal" 
>
<path vector-effect="none" fill-rule="evenodd" d="M213.47,-53.173 C225.85,-54.856 238.09,-56.518 249.13,-58.017 "/>
</g>

<g fill="none" stroke="#000000" stroke-opacity="1" stroke-width="1" stroke-linecap="square" stroke-linejoin="bevel" transform="matrix(2,0,0,2,-0.0016,256)"
font-family="Ubuntu" font-size="11" font-weight="400" font-style="normal" 
>
</g>

<g fill="none" stroke="#000000" stroke-opacity="1" stroke-width="1" stroke-linecap="square" stroke-linejoin="bevel" transform="matrix(2,0,0,2,-0.0016,256)"
font-family="Ubuntu" font-size="11" font-weight="400" font-style="normal" 
>
</g>

<g fill="#000000" fill-opacity="1" stroke="#000000" stroke-opacity="1" stroke-width="1" stroke-linecap="square" stroke-linejoin="round" transform="matrix(2,0,0,2,-0.0016,256)"
font-family="Ubuntu" font-size="11" font-weight="400" font-style="normal" 
>
<path vector-effect="none" fill-rule="evenodd" d="M249.13,-58.017 L249.614,-54.454 L259.31,-59.4 L248.646,-61.58 L249.13,-58.017"/>
</g>

<g fill="none" stroke="#000000" stroke-opacity="1" stroke-width="1" stroke-linecap="square" stroke-linejoin="bevel" transform="matrix(2,0,0,2,-0.0016,256)"
font-family="Ubuntu" font-size="11" font-weight="400" font-style="normal" 
>
</g>

<g fill="none" stroke="#000000" stroke-opacity="1" stroke-width="1" stroke-linecap="square" stroke-linejoin="bevel" transform="matrix(2,0,0,2,-0.0016,256)"
font-family="Ubuntu" font-size="11" font-weight="400" font-style="normal" 
>
</g>

<g fill="none" stroke="#000000" stroke-opacity="1" stroke-width="1" stroke-linecap="square" stroke-linejoin="bevel" transform="matrix(2,0,0,2,-0.0016,256)"
font-family="Ubuntu" font-size="11" font-weight="400" font-style="normal" 
>
</g>

<g fill="none" stroke="#000000" stroke-opacity="1" stroke-width="1" stroke-linecap="square" stroke-linejoin="bevel" transform="matrix(2,0,0,2,-0.0016,256)"
font-family="Ubuntu" font-size="11" font-weight="400" font-style="normal" 
>
</g>

<g fill="none" stroke="#000000" stroke-opacity="1" stroke-width="1" stroke-linecap="square" stroke-linejoin="round" transform="matrix(2,0,0,2,-0.0016,256)"
font-family="Ubuntu" font-size="11" font-weight="400" font-style="normal" 
>
<path vector-effect="none" fill-rule="evenodd" d="M548.88,-99.215 C568.19,-94.172 591.74,-88.025 613.72,-82.287 "/>
</g>

<g fill="none" stroke="#000000" stroke-opacity="1" stroke-width="1" stroke-linecap="square" stroke-linejoin="bevel" transform="matrix(2,0,0,2,-0.0016,256)"
font-family="Ubuntu" font-size="11" font-weight="400" font-style="normal" 
>
</g>

<g fill="none" stroke="#000000" stroke-opacity="1" stroke-width="1" stroke-linecap="square" stroke-linejoin="bevel" transform="matrix(2,0,0,2,-0.0016,256)"
font-family="Ubuntu" font-size="11" font-weight="400" font-style="normal" 
>
</g>

<g fill="#000000" fill-opacity="1" stroke="#000000" stroke-opacity="1" stroke-width="1" stroke-linecap="square" stroke-linejoin="round" transform="matrix(2,0,0,2,-0.0016,256)"
font-family="Ubuntu" font-size="11" font-weight="400" font-style="normal" 
>
<path vector-effect="none" fill-rule="evenodd" d="M613.72,-82.287 L612.809,-78.801 L623.68,-79.685 L614.631,-85.773 L613.72,-82.287"/>
</g>

<g fill="none" stroke="#000000" stroke-opacity="1" stroke-width="1" stroke-linecap="square" stroke-linejoin="bevel" transform="matrix(2,0,0,2,-0.0016,256)"
font-family="Ubuntu" font-size="11" font-weight="400" font-style="normal" 
>
</g>

<g fill="none" stroke="#000000" stroke-opacity="1" stroke-width="1" stroke-linecap="square" stroke-linejoin="bevel" transform="matrix(2,0,0,2,-0.0016,256)"
font-family="Ubuntu" font-size="11" font-weight="400" font-style="normal" 
>
</g>

<g fill="none" stroke="#000000" stroke-opacity="1" stroke-width="1" stroke-linecap="square" stroke-linejoin="bevel" transform="matrix(2,0,0,2,-0.0016,256)"
font-family="Ubuntu" font-size="11" font-weight="400" font-style="normal" 
>
</g>

<g fill="none" stroke="#000000" stroke-opacity="1" stroke-width="1" stroke-linecap="square" stroke-linejoin="bevel" transform="matrix(2,0,0,2,-0.0016,256)"
font-family="Ubuntu" font-size="11" font-weight="400" font-style="normal" 
>
</g>

<g fill="none" stroke="#000000" stroke-opacity="1" stroke-width="1" stroke-linecap="square" stroke-linejoin="round" transform="matrix(2,0,0,2,-0.0016,256)"
font-family="Ubuntu" font-size="11" font-weight="400" font-style="normal" 
>
<path vector-effect="none" fill-rule="evenodd" d="M328.9,-79.445 C337.28,-83.279 346.33,-87.427 355,-91.395 "/>
</g>

<g fill="none" stroke="#000000" stroke-opacity="1" stroke-width="1" stroke-linecap="square" stroke-linejoin="bevel" transform="matrix(2,0,0,2,-0.0016,256)"
font-family="Ubuntu" font-size="11" font-weight="400" font-style="normal" 
>
</g>

<g fill="none" stroke="#000000" stroke-opacity="1" stroke-width="1" stroke-linecap="square" stroke-linejoin="bevel" transform="matrix(2,0,0,2,-0.0016,256)"
font-family="Ubuntu" font-size="11" font-weight="400" font-style="normal" 
>
</g>

<g fill="#000000" fill-opacity="1" stroke="#000000" stroke-opacity="1" stroke-width="1" stroke-linecap="square" stroke-linejoin="round" transform="matrix(2,0,0,2,-0.0016,256)"
font-family="Ubuntu" font-size="11" font-weight="400" font-style="normal" 
>
<path vector-effect="none" fill-rule="evenodd" d="M355,-91.395 L356.474,-88.1785 L364.19,-95.605 L353.526,-94.6115 L355,-91.395"/>
</g>

<g fill="none" stroke="#000000" stroke-opacity="1" stroke-width="1" stroke-linecap="square" stroke-linejoin="bevel" transform="matrix(2,0,0,2,-0.0016,256)"
font-family="Ubuntu" font-size="11" font-weight="400" font-style="normal" 
>
</g>

<g fill="none" stroke="#000000" stroke-opacity="1" stroke-width="1" stroke-linecap="square" stroke-linejoin="bevel" transform="matrix(2,0,0,2,-0.0016,256)"
font-family="Ubuntu" font-size="11" font-weight="400" font-style="normal" 
>
</g>

<g fill="none" stroke="#000000" stroke-opacity="1" stroke-width="1" stroke-linecap="square" stroke-linejoin="bevel" transform="matrix(2,0,0,2,-0.0016,256)"
font-family="Ubuntu" font-size="11" font-weight="400" font-style="normal" 
>
</g>

<g fill="none" stroke="#000000" stroke-opacity="1" stroke-width="1" stroke-linecap="square" stroke-linejoin="bevel" transform="matrix(2,0,0,2,-0.0016,256)"
font-family="Ubuntu" font-size="11" font-weight="400" font-style="normal" 
>
</g>

<g fill="none" stroke="#000000" stroke-opacity="1" stroke-width="1" stroke-linecap="square" stroke-linejoin="round" transform="matrix(2,0,0,2,-0.0016,256)"
font-family="Ubuntu" font-size="11" font-weight="400" font-style="normal" 
>
<path vector-effect="none" fill-rule="evenodd" d="M450.65,-110 C451.79,-110 452.94,-110 454.09,-110 "/>
</g>

<g fill="none" stroke="#000000" stroke-opacity="1" stroke-width="1" stroke-linecap="square" stroke-linejoin="bevel" transform="matrix(2,0,0,2,-0.0016,256)"
font-family="Ubuntu" font-size="11" font-weight="400" font-style="normal" 
>
</g>

<g fill="none" stroke="#000000" stroke-opacity="1" stroke-width="1" stroke-linecap="square" stroke-linejoin="bevel" transform="matrix(2,0,0,2,-0.0016,256)"
font-family="Ubuntu" font-size="11" font-weight="400" font-style="normal" 
>
</g>

<g fill="#000000" fill-opacity="1" stroke="#000000" stroke-opacity="1" stroke-width="1" stroke-linecap="square" stroke-linejoin="round" transform="matrix(2,0,0,2,-0.0016,256)"
font-family="Ubuntu" font-size="11" font-weight="400" font-style="normal" 
>
<path vector-effect="none" fill-rule="evenodd" d="M454.09,-110 L454.09,-106.426 L464.3,-110 L454.09,-113.574 L454.09,-110"/>
</g>

<g fill="none" stroke="#000000" stroke-opacity="1" stroke-width="1" stroke-linecap="square" stroke-linejoin="bevel" transform="matrix(2,0,0,2,-0.0016,256)"
font-family="Ubuntu" font-size="11" font-weight="400" font-style="normal" 
>
</g>

<g fill="none" stroke="#000000" stroke-opacity="1" stroke-width="1" stroke-linecap="square" stroke-linejoin="bevel" transform="matrix(1,0,0,1,0,0)"
font-family="Ubuntu" font-size="11" font-weight="400" font-style="normal" 
>
</g>
</g>
</svg>
